<?xml version="1.0" encoding="utf-8"?>
<!-- Generator: Adobe Illustrator 16.0.0, SVG Export Plug-In . SVG Version: 6.00 Build 0)  -->
<!DOCTYPE svg PUBLIC "-//W3C//DTD SVG 1.1//EN" "http://www.w3.org/Graphics/SVG/1.1/DTD/svg11.dtd">
<svg version="1.1" id="Layer_1" xmlns="http://www.w3.org/2000/svg" xmlns:xlink="http://www.w3.org/1999/xlink" x="0px" y="0px"
	 width="250px" height="250px" viewBox="0 0 250 250" enable-background="new 0 0 250 250" xml:space="preserve">
<g opacity="0.5">
	<path fill-rule="evenodd" clip-rule="evenodd" d="M157.912,93.996c0,0,1.688-3.896,2.348-5.698
		c1.564-4.278,3.121-8.559,4.678-12.84c1.418-3.898,2.991-7.749,4.197-11.711c1.189-3.906,6.247-6.079,9.574-5.039
		c8.859,2.768,17.822,5.199,26.732,7.805c1.355,0.396,2.33,1.38,2.925,2.658c1.126,2.419,1.036,4.769-0.534,6.999
		c-7.979,11.32-15.949,22.644-23.93,33.96c-2.46,3.488-8.113,11.155-8.113,11.155s10.563,17.918,15.529,26.29
		c3.563,6.01,7.133,12.016,10.693,18.025c0.229,0.389,0.341,0.855,0.605,1.213c2.257,3.051,0.928,6.279-1.658,8.451
		c-2.117,1.778-4.685,2.377-7.233,2.971c-5.233,1.219-10.465,2.52-15.768,3.318c-2.018,0.304-4.276-0.516-6.345-1.106
		c-4.063-1.162-5.604-4.592-7.068-8.138c-2.02-4.889-4.231-9.697-6.354-14.542c-0.435-0.991-1.644-2.931-1.644-2.931
		s0.004,0.928,0,1.391c-0.053,6.018-0.086,12.033-0.169,18.051c-0.053,3.835-3.312,7.292-7.163,7.424
		c-5.756,0.199-11.518,0.281-17.277,0.322c-2.399,0.018-3.922-1.589-5.105-3.422c-1.182-1.828-1.293-3.91-1.087-6.061
		c0.215-2.249,0.26-4.518,0.32-6.777c0.07-2.76,0.036-5.521,0.123-8.28c0.213-6.778,0.469-13.556,0.709-20.332
		c0.074-2.097,0.171-4.192,0.224-6.288c0.187-7.406,0.342-14.812,0.541-22.217c0.234-8.718,0.476-17.436,0.766-26.151
		c0.144-4.313,0.274-8.632,0.657-12.926c0.283-3.18,2.758-6.64,7.089-7.079c3.752-0.381,7.491-0.903,11.249-1.219
		c4.653-0.391,8.436,1.901,10.172,6.201c0.424,1.052,0.371,2.336,0.371,3.513C157.968,78.321,157.912,93.996,157.912,93.996z"/>
	<path fill-rule="evenodd" clip-rule="evenodd" d="M71.081,59.687c2.507,0.189,5.38,0.319,8.232,0.639
		c6.289,0.707,12.152,2.808,17.501,6.113c2.74,1.692,5.151,3.933,7.651,5.997c3.807,3.143,6.613,7.204,9.372,11.185
		c2.331,3.364,4.488,6.944,5.596,11.045c1.144,4.234,2.784,8.333,3.934,12.566c0.693,2.552,0.947,5.236,1.246,7.879
		c0.261,2.323,0.514,4.678,0.409,7.004c-0.207,4.586-0.611,9.167-1.041,13.741c-0.196,2.075-0.464,4.177-1.021,6.177
		c-1.191,4.271-2.562,8.494-3.916,12.718c-2.136,6.671-5.938,12.37-10.285,17.784c-2.895,3.604-6.417,6.448-10.054,9.225
		c-3.552,2.71-7.652,4.238-11.697,5.953c-4.014,1.701-8.224,2.504-12.479,3.206c-6.51,1.075-11.219-2.427-12.687-8.501
		c-1.307-5.418-2.379-10.894-3.51-16.354c-1.691-8.169-3.328-16.348-5.014-24.517c-1.112-5.386-2.288-10.759-3.402-16.144
		c-1.406-6.797-2.82-13.591-4.154-20.402c-1.529-7.805-2.976-15.626-4.452-23.441c-0.341-1.81-0.73-3.615-0.968-5.439
		c-0.52-4.008,0.466-9.293,4.334-11.433c2.095-1.158,4.435-1.991,6.763-2.583c3.095-0.79,6.277-1.265,9.44-1.75
		c1.616-0.248,3.275-0.214,4.915-0.316C67.436,59.934,69.076,59.82,71.081,59.687z M80.324,101.334
		c-4.064-0.246-7.404,1.402-7.404,1.402s1.704,9.775,2.475,14.092c0.893,5.008,1.806,10.013,2.712,15.019
		c0.649,3.594,2.174,12.418,2.174,12.418s6.433,0.494,12.683-5.76c3.699-4.979,4.969-10.688,4.462-16.839
		c-0.35-4.246-1.204-8.29-3.313-12.101C91.145,104.201,86.428,101.416,80.324,101.334z"/>
</g>
</svg>
