<?xml version="1.0" encoding="utf-8"?>
<!-- Generator: Adobe Illustrator 16.0.0, SVG Export Plug-In . SVG Version: 6.00 Build 0)  -->
<!DOCTYPE svg PUBLIC "-//W3C//DTD SVG 1.1//EN" "http://www.w3.org/Graphics/SVG/1.1/DTD/svg11.dtd">
<svg version="1.1" id="Layer_1" xmlns="http://www.w3.org/2000/svg" xmlns:xlink="http://www.w3.org/1999/xlink" x="0px" y="0px"
	 width="250px" height="250px" viewBox="0 0 250 250" enable-background="new 0 0 250 250" xml:space="preserve">
<path opacity="0.5" fill-rule="evenodd" clip-rule="evenodd" d="M170.608,79.693c2.448,2.447,1.038,7.827-3.149,12.014
	s-9.566,5.597-12.014,3.149c-2.447-2.448-1.038-7.826,3.148-12.014C162.781,78.655,168.16,77.244,170.608,79.693z M207.303,41.957
	c-2.525-0.229-11.988-0.902-16.433,3.749c-5.048,4.491-5.222,13.064-5.222,13.064l-10.046,9.638c0,0-4.263-0.717-6.444-0.612
	c-1.477,0.071-6.562,1.429-6.562,1.429l-10.76-17.817l-22.511-0.118l-11.283,16.125l3.149,19.595l11.081-16.214l7.436,0.263
	l6.183,12.772l-4.899,12.832l-84.377,69.884l-15.993,43.157l0.001,0.003l43.156-15.994l69.886-84.378l12.831-4.898l12.771,6.182
	l0.263,7.436l-16.214,11.08l19.596,3.149l16.124-11.282l-0.118-22.511l-17.816-10.76c0,0,1.357-5.086,1.428-6.562
	c0.105-2.182-0.611-6.444-0.611-6.444l9.638-10.045c0,0,8.573-0.175,13.063-5.222c4.651-4.444,3.749-13.897,3.749-16.433
	C208.368,41.949,207.303,41.957,207.303,41.957z"/>
</svg>
