<?xml version="1.0" encoding="utf-8"?>
<!-- Generator: Adobe Illustrator 16.0.0, SVG Export Plug-In . SVG Version: 6.00 Build 0)  -->
<!DOCTYPE svg PUBLIC "-//W3C//DTD SVG 1.1//EN" "http://www.w3.org/Graphics/SVG/1.1/DTD/svg11.dtd">
<svg version="1.1" id="Layer_1" xmlns="http://www.w3.org/2000/svg" xmlns:xlink="http://www.w3.org/1999/xlink" x="0px" y="0px"
	 width="250px" height="250px" viewBox="0 0 250 250" enable-background="new 0 0 250 250" xml:space="preserve">
<g opacity="0.5">
	<path fill-rule="evenodd" clip-rule="evenodd" d="M181.667,194.551c-0.533-0.492-1.085-0.965-1.599-1.479
		c-9.551-9.55-19.08-19.126-28.669-28.641c-1.401-1.39-2.129-2.912-2.258-4.854c-0.187-2.828-0.473-5.651-0.777-8.47
		c-0.058-0.521-0.278-1.138-0.636-1.499c-7.725-7.766-15.483-15.498-23.227-23.246c-5.445-5.446-10.875-10.907-16.313-16.358
		c-0.142-0.142-0.313-0.253-0.442-0.357c-3.719,3.733-7.403,7.43-11.2,11.242c0.814,0.839,1.773,1.779,2.678,2.768
		c1.918,2.099,1.201,5.893-1.549,6.417c-2.781,0.53-4.017,2.424-5.434,4.288c-2.483,3.265-5.077,6.448-6.918,10.172
		c-1.425,2.884-2.7,5.779-3.346,8.957c-0.524,2.573-1.453,5.071-1.892,7.656c-0.398,2.337-0.439,4.744-0.525,7.125
		c-0.144,4.042,0.444,8.016,1.23,11.974c1.03,5.19,1.915,10.409,2.979,15.593c0.624,3.037,0.839,6.06-0.041,9.033
		c-0.76,2.572-2.037,4.893-4.747,5.934c-2.563,0.986-5.443,0.681-6.758-1.497c-0.465-0.771-0.505-1.868-0.505-2.817
		c0-0.336,0.678-0.924,1.076-0.949c0.531-0.034,1.126,0.308,1.621,0.607c0.217,0.132,0.254,0.561,0.373,0.854
		c0.119,0,0.239,0,0.357,0c0-0.719,0.227-1.537-0.039-2.139c-1.208-2.742-2.526-5.438-3.859-8.121
		c-2.612-5.259-5.415-10.43-7.85-15.768c-2.059-4.514-3.76-9.195-5.527-13.838c-1.688-4.434-2.606-9.069-3.493-13.723
		c-0.672-3.524-1.162-7.043-1.17-10.625c-0.01-3.762,0.481-7.451,1.591-11.059c0.517-1.686,0.817-3.438,1.388-5.102
		c0.622-1.814,1.3-3.637,2.208-5.318c1.559-2.892,3.176-5.772,5.033-8.476c1.456-2.119,3.309-3.964,4.986-5.93
		c0.583-0.685,1.171-1.365,1.773-2.065c-0.894-1.775-1.874-3.453-2.595-5.234c-0.751-1.857-1.438-3.796-1.02-5.866
		c0.123-0.61,0.487-1.173,0.852-2.017c4.41,4.483,8.639,8.783,13.159,13.378c1.13-1.255,2.077-2.385,3.104-3.434
		c2.393-2.44,4.818-4.85,7.249-7.255c0.552-0.546,0.739-0.952,0.075-1.61C83.092,84.94,75.2,77.051,67.297,69.171
		c-0.171-0.17-0.378-0.305-0.86-0.688c-1.052,1.871-2.182,3.604-3.025,5.467c-0.654,1.447-0.912,3.068-1.429,4.584
		c-0.122,0.357-0.576,0.602-0.876,0.898c-0.262-0.284-0.632-0.524-0.767-0.857c-1.768-4.38-3.433-8.802-5.259-13.157
		c-3.925-9.357-9.669-17.594-15.921-25.504c-0.381-0.482-0.957-0.83-1.261-1.346c-0.231-0.394-0.176-0.957-0.249-1.444
		c0.465,0.066,1.077-0.036,1.374,0.223c7.088,6.148,14.94,11.189,23.202,15.544c4.022,2.12,8.391,3.586,12.618,5.311
		c1.364,0.557,2.788,0.964,4.159,1.505c0.373,0.147,0.652,0.53,0.976,0.805c-0.332,0.305-0.622,0.8-1.002,0.886
		c-3.001,0.683-5.79,1.84-8.357,3.532c-0.477,0.314-0.922,0.68-1.329,0.981c8.35,8.346,16.657,16.65,24.961,24.951
		c3.604-3.569,7.302-7.23,11.169-11.06c-4.356-4.291-8.677-8.547-13.03-12.834c1.175-1.095,2.503-1.255,3.791-1.007
		c1.557,0.301,3.081,0.82,4.579,1.357c0.922,0.33,1.766,0.881,2.655,1.311c2.086,1.011,2.08,0.996,3.849-0.567
		c1.942-1.717,3.759-3.624,5.888-5.074c5.826-3.97,11.965-7.255,18.989-8.781c3.957-0.858,7.91-1.819,11.919-1.587
		c4.28,0.247,8.536,1.061,12.776,1.787c7.748,1.327,15.066,4.103,22.218,7.227c5.524,2.414,10.813,5.36,16.225,8.035
		c3.384,1.674,6.78,3.328,10.221,4.879c0.585,0.265,1.423-0.026,2.137-0.219c-0.997-0.412-1.839-0.872-1.623-2.051
		c0.198-1.085,1.06-1.327,2.075-1.275c2.16,0.114,3.944,2.308,3.797,4.811c-0.187,3.165-1.738,5.354-4.684,6.637
		c-3.371,1.468-6.753,1.561-10.331,0.832c-6.843-1.393-13.72-2.638-20.604-3.803c-7.621-1.287-15.074-0.3-22.396,1.996
		c-0.857,0.269-1.792,0.326-2.609,0.673c-2.447,1.044-4.891,2.112-7.269,3.302c-4.526,2.263-8.298,5.605-12.159,8.799
		c-0.434,0.358-0.711,1.087-0.775,1.675c-0.199,1.815-1.196,2.969-2.824,3.548c-1.49,0.53-2.89,0.31-4.074-0.901
		c-0.885-0.905-1.867-1.715-2.777-2.542c-3.724,3.741-7.37,7.404-11.114,11.167c1.703,1.728,3.476,3.553,5.274,5.351
		c3.813,3.813,7.646,7.604,11.458,11.417c7.654,7.656,15.311,15.31,22.934,22.996c0.873,0.879,1.796,1.273,3.027,1.348
		c2.788,0.164,5.57,0.447,8.348,0.756c0.47,0.053,0.979,0.396,1.336,0.741c3.805,3.702,7.581,7.435,11.371,11.151
		c5.553,5.447,11.11,10.889,16.664,16.334c1.117,1.094,2.242,2.182,3.337,3.299c0.279,0.285,0.457,0.669,0.682,1.008
		c-0.091,0.111-0.183,0.221-0.274,0.332c-7.411-3.422-14.824-6.843-22.235-10.264c-0.081,0.071-0.161,0.143-0.241,0.215
		c3.321,7.509,6.988,14.869,10.223,22.416C182.002,194.383,181.835,194.467,181.667,194.551z"/>
</g>
</svg>
