<?xml version="1.0" encoding="UTF-8" standalone="no"?>
<!-- Created with Inkscape (http://www.inkscape.org/) -->
<svg
   xmlns:dc="http://purl.org/dc/elements/1.1/"
   xmlns:cc="http://creativecommons.org/ns#"
   xmlns:rdf="http://www.w3.org/1999/02/22-rdf-syntax-ns#"
   xmlns:svg="http://www.w3.org/2000/svg"
   xmlns="http://www.w3.org/2000/svg"
   xmlns:sodipodi="http://sodipodi.sourceforge.net/DTD/sodipodi-0.dtd"
   xmlns:inkscape="http://www.inkscape.org/namespaces/inkscape"
   width="250"
   height="250"
   id="svg2520"
   sodipodi:version="0.32"
   inkscape:version="0.46"
   version="1.0"
   sodipodi:docname="Chozo Universe.svg"
   inkscape:output_extension="org.inkscape.output.svg.inkscape">
  <defs
     id="defs2522">
    <inkscape:perspective
       sodipodi:type="inkscape:persp3d"
       inkscape:vp_x="0 : 526.18109 : 1"
       inkscape:vp_y="0 : 1000 : 0"
       inkscape:vp_z="744.09448 : 526.18109 : 1"
       inkscape:persp3d-origin="372.04724 : 350.78739 : 1"
       id="perspective2528" />
  </defs>
  <sodipodi:namedview
     id="base"
     pagecolor="#ffffff"
     bordercolor="#666666"
     borderopacity="1.0"
     gridtolerance="10000"
     guidetolerance="10"
     objecttolerance="10"
     inkscape:pageopacity="0.0"
     inkscape:pageshadow="2"
     inkscape:zoom="1"
     inkscape:cx="125"
     inkscape:cy="125"
     inkscape:document-units="px"
     inkscape:current-layer="layer1"
     showgrid="false"
     inkscape:window-width="1280"
     inkscape:window-height="780"
     inkscape:window-x="-8"
     inkscape:window-y="-8" />
  <metadata
     id="metadata2525">
    <rdf:RDF>
      <cc:Work
         rdf:about="">
        <dc:format>image/svg+xml</dc:format>
        <dc:type
           rdf:resource="http://purl.org/dc/dcmitype/StillImage" />
      </cc:Work>
    </rdf:RDF>
  </metadata>
  <g
     inkscape:label="Layer 1"
     inkscape:groupmode="layer"
     id="layer1"
     transform="translate(119.28572,-401.64789)">
    <path
       id="path8676"
       style="fill:#000000;fill-opacity:1;fill-rule:nonzero;stroke:none;stroke-width:1;stroke-linecap:butt;stroke-linejoin:miter;marker:none;marker-start:none;marker-mid:none;marker-end:none;stroke-miterlimit:4;stroke-dasharray:none;stroke-dashoffset:0;stroke-opacity:1;visibility:visible;display:inline;overflow:visible;enable-background:accumulate;opacity:0.50000000000000000"
       d="M 5.7143,456.83552 C -32.81973,456.83552 -64.09822,488.11402 -64.0982,526.64802 C -64.0982,546.48932 -55.77801,564.37212 -42.4732,577.08552 L -20.69195,553.92922 L -36.81695,549.55422 L -38.12945,495.46052 L 29.24555,460.92922 C 21.8924,458.29432 13.9701,456.83552 5.7143,456.83552 z M 53.9018,476.21052 L 32.12055,499.36682 L 48.24555,503.74182 L 49.55805,557.83552 L -17.81695,592.36682 C -10.4638,595.00172 -2.54151,596.46052 5.7143,596.46052 C 44.24833,596.46052 75.5268,565.18202 75.5268,526.64802 C 75.5268,506.80672 67.20661,488.92392 53.9018,476.21052 z M 88.62055,433.71052 L -32.25445,497.86682 L -31.37945,548.02302 L -13.0357,551.08552 L -77.19195,619.58552 L 43.68305,555.42922 L 42.80805,505.27302 L 24.4643,502.21052 L 88.62055,433.71052 z M 55.68305,458.80422 L -2.56695,522.58552 L 19.4643,509.61682 L 36.4643,509.83552 L 37.7768,549.99182 L -44.25445,594.49182 L 13.99555,530.71052 L -8.0357,543.67922 L -25.0357,543.46052 L -26.3482,503.30422 L 55.68305,458.80422 z" />
  </g>
</svg>
