<?xml version="1.0" encoding="UTF-8" standalone="no"?>
<!-- Created with Inkscape (http://www.inkscape.org/) by Toomai Glittershine for SmashWiki -->
<svg id="svg2" xmlns:rdf="http://www.w3.org/1999/02/22-rdf-syntax-ns#" xmlns="http://www.w3.org/2000/svg" version="1.1" xmlns:cc="http://creativecommons.org/ns#" xmlns:dc="http://purl.org/dc/elements/1.1/"
		height="256" width="256"
		viewBox="0 0 256 256">
	<metadata id="metadata7">
		<rdf:RDF>
			<cc:Work rdf:about="">
				<dc:format>image/svg+xml</dc:format>
				<dc:type rdf:resource="http://purl.org/dc/dcmitype/StillImage"/>
				<dc:title/>
			</cc:Work>
		</rdf:RDF>
	</metadata>
	<path id="mainsymbolpath" style="opacity:0.5;fill:#000000;fill-opacity:1;stroke:none"
		d="M 46.970364,97.339743 C 44.863952,72.871955 80.555936,51.250407 116.88478,40.628981 c 13.77188,-1.840268 33.52475,-1.947723 41.99193,0.432907 -5.09787,30.621099 -7.27622,55.413085 0,66.234702 41.77541,-12.128234 78.2781,6.87651 45.8881,55.84495 l 0.86581,-3.46325 c -10.46191,10.16681 -20.92381,19.68076 -31.38572,23.5934 -13.67662,16.63742 -20.41544,28.84718 -35.28189,32.9009 -7.39991,-3.51044 -28.97386,-12.67667 -23.80986,2.38099 l -6.92651,0 C 92.698162,208.0668 92.543617,207.96878 91.992648,204.70057 c -37.014929,-7.25553 -35.049551,-21.18818 -32.9009,-31.38573 9.90765,-9.04708 19.337015,-17.40338 30.95282,-17.96562 0.697059,-6.61345 -1.377617,-10.45516 -4.112612,-13.63656 l 0.216453,-3.6797 C 71.566326,116.91458 58.544194,96.342495 46.970364,97.339743 Z M 95.699997,200.38246 c -0.733411,0.44247 3.936842,5.61578 4.245614,5.88596 3.377189,3.95614 8.835309,1.64958 8.433329,-0.17368 -1.22136,-5.53976 -10.794922,-6.84892 -12.678943,-5.71228 z m 26.596113,1.72067 c 3.14156,-6.52822 7.46628,-6.77377 9.92034,-6.09667 2.16851,0.59832 4.29775,2.51728 6.74656,3.49924 17.69289,0.0512 23.46826,-10.32131 26.4073,-18.18207 -2.07788,1.96258 -4.12283,3.93024 -6.9265,5.19487 -3.77454,1.70256 -7.50371,3.34778 -11.25557,0.86582 1.37285,-4.66022 3.44121,-6.82286 12.33783,-7.79232 5.39938,-1.4833 12.06224,-7.4731 14.28592,-18.3568 -3.47656,3.04321 -7.03326,5.56349 -8.22522,1.04054 -1.26178,-4.78786 3.87287,-9.15934 8.83129,-12.72746 2.57507,-1.85304 6.20238,-4.35271 8.26852,-0.0433 2.74174,0.71478 5.43489,0.61319 8.09535,-0.17316 6.2074,-1.83473 9.09332,-9.92983 11.16899,-16.92665 -0.5468,-3.36526 0.43018,-5.4928 1.08227,-8.00877 -2.05234,1.35212 -3.60749,2.56552 -5.2121,5.42751 -3.11877,5.56265 -7.12868,12.32613 -15.35097,9.94067 -3.15228,-3.58956 -0.80882,-7.4368 3.79707,-12.40355 -7.19321,0.81097 -14.61551,5.98085 -13.75392,18.24779 -2.91892,-0.11735 -6.3663,-1.1305 -6.8587,-3.29739 -1.67131,-7.35495 -1.05329,-14.64821 5.65074,-19.29668 2.15984,-2.92969 5.64134,-10.23903 5.32057,-13.55363 -1.112,3.78506 -9.41671,11.41902 -10.81745,11.94666 -5.73282,2.15949 -13.05555,6.75371 -15.58985,11.64675 -1.81198,3.49843 -1.87897,14.18003 -1.47214,18.35002 -1.1399,11.20498 -7.39566,11.17317 -11.08215,9.57246 -2.61935,-4.80213 -1.11147,-9.06418 2.38099,-15.15173 -2.2798,0.48506 -11.17552,9.91121 -12.12139,15.36818 -0.0595,3.36937 -2.71427,9.63921 -5.62778,12.77074 -0.92338,6.205 -1.7697,12.47629 -1.5243,18.70522 0.13044,3.3109 0.53959,6.36942 1.5243,9.43371 z"
	/>
</svg>