<?xml version="1.0" encoding="utf-8"?>
<!-- Generator: Adobe Illustrator 16.0.0, SVG Export Plug-In . SVG Version: 6.00 Build 0)  -->
<!DOCTYPE svg PUBLIC "-//W3C//DTD SVG 1.1//EN" "http://www.w3.org/Graphics/SVG/1.1/DTD/svg11.dtd">
<svg version="1.1" id="Layer_1" xmlns="http://www.w3.org/2000/svg" xmlns:xlink="http://www.w3.org/1999/xlink" x="0px" y="0px"
	 width="250px" height="250px" viewBox="0 0 250 250" enable-background="new 0 0 250 250" xml:space="preserve">
<g opacity="0.5">
	<path fill-rule="evenodd" clip-rule="evenodd" d="M140.903,146.97c-1.653-0.539-3.153,0.222-4.659,0.823
		c-3.623,1.45-7.271,2.854-10.828,4.452c-1.824,0.82-3.523,1.951-5.196,3.066c-3.843,2.563-8.05,3.947-12.633,4.472
		c-4.835,0.555-9.438-0.115-13.911-1.947c-0.327-0.135-0.679-0.209-1.145-0.35c0.289,2.085,0.593,4.012,0.817,5.949
		c0.26,2.259,0.905,4.545,0.042,6.782c-0.249,0.646-0.83,1.331-1.439,1.644c-2.083,1.068-4.35,1.808-6.35,3
		c-1.81,1.081-3.48,2.473-4.998,3.947c-1.79,1.739-3.441,3.645-4.979,5.615c-1.188,1.521-0.991,2.258,0.592,3.36
		c1.99,1.386,4.07,2.644,6.034,4.065c0.561,0.406,1.018,1.135,1.225,1.81c0.358,1.166,0.455,2.411,0.719,3.61
		c0.182,0.83-0.09,1.305-0.865,1.645c-3.964,1.741-9.175,0.966-12.278-2.285c-3.278-3.436-5.679-7.237-5.92-12.08
		c-0.054-1.094,0.251-2.352,0.796-3.303c1.712-2.992,3.479-5.974,5.486-8.771c2.026-2.822,4.67-5.057,7.839-6.59
		c0.552-0.268,0.844-0.561,0.584-1.229c-1.171-3.024-2.298-6.067-3.491-9.085c-0.13-0.328-0.408-0.918-0.408-0.918
		s-10.137-0.664-14.96-1.058c-0.277-0.022-0.559-0.003-1.25-0.003c0.556,0.934,0.868,1.733,1.417,2.305
		c0.57,0.592,1.37,0.962,2.07,1.428c0.12,0.073,0.174,0.359-0.036,0.41c-1.593,0.256-3.178,0.599-4.781,0.747
		c-3.305,0.308-6.414-0.472-9.372-1.933c-0.92-0.455-1.836-0.934-2.797-1.28c-0.458-0.167-1.058-0.188-1.522-0.044
		c-5.711,1.767-11.49,2.342-17.357,0.949c-2.264-0.536-4.544-1.112-6.702-1.962c-3.36-1.322-4.735-4.997-4.062-8.374
		c0.191-0.957,0.785-1.857,1.973-1.911c3.789-0.17,7.058-1.725,10.125-3.794c0.813-0.549,1.538-1.228,2.289-1.863
		c0.59-0.498,1.667-1.865,1.667-1.865s-0.08-0.995,0-1.701c0.327-2.892,2.306-5.125,4.194-7.263
		c2.751-3.114,6.098-5.317,10.174-6.366c2.217-0.57,4.417-1.215,6.586-1.944c0.751-0.251,1.481-0.759,2.053-1.319
		c3.374-3.305,6.692-6.668,10.051-9.989c0.322-0.319,0.794-0.488,1.197-0.726c0.138,0.406,0.381,0.809,0.397,1.22
		c0.181,4.602-0.642,9.003-2.894,13.054c-0.625,1.125-1.543,2.087-2.583,3.465c10.095,0.214,28.562-5.459,28.562-5.459
		s-2.727-1.911-4.093-2.864c-5.654-3.942-9.712-9.067-11.528-15.792c-1.024-3.79-0.855-7.628-0.294-11.49
		c0.488-3.37,1.363-6.629,3-9.579c3.112-5.61,7.035-10.545,12.294-14.39c4.668-3.414,9.87-5.628,15.371-7.032
		c3.226-0.824,6.66-1.006,10.012-1.111c4.046-0.127,8.122-0.075,12.152,0.274c5.594,0.483,11.154,1.317,16.731,1.997
		c4.354,0.53,8.7,1.2,13.071,1.523c2.436,0.18,4.915-0.207,7.374-0.37c2.214-0.146,4.423-0.442,6.636-0.48
		c5.707-0.097,11.249-1.146,16.762-2.522c5.49-1.37,11.004-2.651,16.525-3.896c2.932-0.662,5.381-2.183,7.73-3.946
		c0.41-0.309,0.854-0.574,1.281-0.858c0.229-0.211,0.368,0.021,0.332,0.189c-0.184,0.582-0.296,1.198-0.562,1.738
		c-2.18,4.457-5.167,8.362-8.146,12.307c-3.916,5.186-9.021,9.075-13.771,13.359c-3.477,3.135-6.951,6.275-10.523,9.299
		c-1.336,1.13-2.913,1.998-4.442,2.879c-3.138,1.807-6.298,3.574-9.481,5.297c-2.627,1.423-5.506,2.044-8.412,2.666
		c-4.604,0.985-9.238,1.615-13.931,1.532c-3.231-0.057-6.456-0.509-9.686-0.759c-4.378-0.339-8.755-0.688-13.137-0.961
		c-1.71-0.106-3.431-0.039-5.147-0.014c-2.488,0.037-4.893,0.668-6.868,2.097c-3.753,2.72-4.765,6.527-1.64,10.622
		c0.175,0.229,0.365,0.446,0.54,0.674c0.982,1.272,2.392,2.114,2.392,2.114s1.19-0.201,2.644-0.681
		c3.636-1.305,7.236-2.639,10.913-3.809c1.736-0.553,3.619-0.673,5.445-0.904c3.781-0.479,7.541-1.352,11.391-0.861
		c3.053,0.389,6.141,0.644,9.131,1.326c2.574,0.587,5.114,1.511,7.524,2.605c5.43,2.463,11.13,3.843,16.943,5.022
		c5.032,1.021,10.095,1.217,15.177,1.461c2.492,0.12,4.984,0.471,7.471,0.414c5.78-0.133,11.314-1.53,16.838-3.227
		c5.433-1.669,10.448-4.165,15.504-6.639c1.068-0.522,2.188-0.938,3.286-1.403c0.212-0.071,0.304,0.075,0.256,0.35
		c-0.536,1.31-1.109,2.607-1.602,3.934c-1.942,5.24-4.798,10.014-7.8,14.669c-1.811,2.806-4.098,5.293-6.657,7.531
		c-1.97,1.721-4.103,3.119-6.329,4.447c-2.434,1.452-5.094,1.966-7.835,2.354c-6.278,0.888-12.084-0.879-17.937-2.815
		c-4.204-1.392-8.234-3.103-12.004-5.362c-2.528-1.517-4.764-3.513-7.231-5.14c-1.808-1.192-3.77-2.153-5.688-3.168
		c-0.413-0.218-0.933-0.229-1.712-0.406c0.438,0.504,0.671,0.766,0.897,1.034c1.694,1.997,3.69,3.812,5.02,6.028
		c3.044,5.082,4.072,10.558,1.681,16.245c-1.049,2.493-2.137,5.021-3.607,7.27c-1.583,2.421-3.683,4.499-5.469,6.795
		c-1.681,2.161-3.375,4.333-4.815,6.654c-1.028,1.653-0.47,2.862,1.275,3.86c0.894,0.512,1.788,1.021,2.669,1.551
		c1.573,0.945,2.323,2.419,2.441,4.178c0.232,3.486-1.445,6.34-3.2,9.143c-2.177,3.474-5.091,6.201-8.493,8.458
		c-2.295,1.521-4.551,3.104-6.767,4.739c-3.484,2.569-7.394,2.809-11.394,1.955c-3.407-0.725-4.284-5.021-1.728-7.654
		c1.841-1.898,4.308-2.698,6.59-3.786c3.392-1.616,6.745-3.272,9.487-5.889c0.998-0.952,1.813-2.11,2.607-3.248
		c0.174-0.249,0.053-0.944-0.185-1.202c-1.727-1.865-3.612-3.592-5.259-5.521c-1.458-1.709-2.254-3.752-2.489-6.061
		c-0.423-4.144,0.056-8.22,0.823-12.248C139.183,151.529,140.158,149.283,140.903,146.97z"/>
</g>
</svg>
